<mxfile host="app.diagrams.net" modified="2021-07-22T08:22:22.028Z" agent="5.0 (Macintosh; Intel Mac OS X 10_15_7) AppleWebKit/537.36 (KHTML, like Gecko) Chrome/91.0.4472.164 Safari/537.36" etag="Ewg_Lw8ckxfTkNBgR8Sx" version="14.8.6" type="github">
  <diagram id="7G6O5gSfWizY2tAJNnmJ" name="第 1 页">
    <mxGraphModel dx="1186" dy="739" grid="1" gridSize="10" guides="1" tooltips="1" connect="1" arrows="1" fold="1" page="1" pageScale="1" pageWidth="2339" pageHeight="3300" math="0" shadow="0">
      <root>
        <mxCell id="0" />
        <mxCell id="1" parent="0" />
        <mxCell id="3fkyfGFidn4VkuOGFDm8-1" value="" style="rounded=0;whiteSpace=wrap;html=1;" parent="1" vertex="1">
          <mxGeometry x="260" y="320" width="540" height="60" as="geometry" />
        </mxCell>
        <mxCell id="3fkyfGFidn4VkuOGFDm8-2" value="" style="rounded=0;whiteSpace=wrap;html=1;" parent="1" vertex="1">
          <mxGeometry x="260" y="260" width="540" height="60" as="geometry" />
        </mxCell>
        <mxCell id="3fkyfGFidn4VkuOGFDm8-3" value="" style="rounded=0;whiteSpace=wrap;html=1;" parent="1" vertex="1">
          <mxGeometry x="260" y="200" width="540" height="60" as="geometry" />
        </mxCell>
        <mxCell id="3fkyfGFidn4VkuOGFDm8-4" value="SDL" style="text;html=1;strokeColor=none;fillColor=none;align=center;verticalAlign=middle;whiteSpace=wrap;rounded=0;" parent="1" vertex="1">
          <mxGeometry x="270" y="340" width="40" height="20" as="geometry" />
        </mxCell>
        <mxCell id="3fkyfGFidn4VkuOGFDm8-5" value="TML" style="text;html=1;strokeColor=none;fillColor=none;align=center;verticalAlign=middle;whiteSpace=wrap;rounded=0;" parent="1" vertex="1">
          <mxGeometry x="270" y="280" width="40" height="20" as="geometry" />
        </mxCell>
        <mxCell id="3fkyfGFidn4VkuOGFDm8-6" value="IDL" style="text;html=1;strokeColor=none;fillColor=none;align=center;verticalAlign=middle;whiteSpace=wrap;rounded=0;" parent="1" vertex="1">
          <mxGeometry x="270" y="220" width="40" height="20" as="geometry" />
        </mxCell>
        <mxCell id="3fkyfGFidn4VkuOGFDm8-7" value="kafka" style="rounded=0;whiteSpace=wrap;html=1;" parent="1" vertex="1">
          <mxGeometry x="320" y="335" width="70" height="30" as="geometry" />
        </mxCell>
        <mxCell id="3fkyfGFidn4VkuOGFDm8-8" value="ogg" style="rounded=0;whiteSpace=wrap;html=1;" parent="1" vertex="1">
          <mxGeometry x="420" y="335" width="70" height="30" as="geometry" />
        </mxCell>
        <mxCell id="3fkyfGFidn4VkuOGFDm8-9" value="DWD" style="rounded=0;whiteSpace=wrap;html=1;" parent="1" vertex="1">
          <mxGeometry x="320" y="275" width="70" height="30" as="geometry" />
        </mxCell>
        <mxCell id="K0eq5mHv3m0ptnaM2A2S-1" value="ogg" style="rounded=0;whiteSpace=wrap;html=1;" vertex="1" parent="1">
          <mxGeometry x="520" y="335" width="70" height="30" as="geometry" />
        </mxCell>
      </root>
    </mxGraphModel>
  </diagram>
</mxfile>
